# xmcd CD database file
#
# Track frame offsets:
#	150
#	23697
#	39941
#	55875
#	71354
#	84116
#	97300
#	112554
#	126257
#	134973
#	148659
#	170713
#	182421
#	195130
#	210220
#	223596
#	237899
#	254933
#	266530
#	279616
#
# Disc length: 3904 seconds
#
# Revision: 0
# Processed by: cddbd v1.5.2PL0 Copyright (c) Steve Scherf et al.
# Submitted via: CDex 1.70beta2
#
DISCID=200f3e14
DTITLE=Tito Puento  - El Rey del Timbal
DYEAR=2007
DGENRE=Salsa
TTITLE0=Elgua chango
TTITLE1=Oye mi guaguanco
TTITLE2=Guaguanco margarito
TTITLE3=Que sera
TTITLE4=Tiny-not Ghengis
TTITLE5=Mambo macoco
TTITLE6=Pa los rumberos
TTITLE7=Malcriada
TTITLE8=Cuban fantasy
TTITLE9=Tito on timbales
TTITLE10=Lotus land
TTITLE11=Happy cha-cha-cha
TTITLE12=Cha-cha-cha de los pollos
TTITLE13=Cual es la idea
TTITLE14=El yoyo
TTITLE15=Ran kan kan
TTITLE16=Yambeque
TTITLE17=Thats's a Puente
TTITLE18=Mambo buda
TTITLE19=Tito 'in
EXTD=YEAR: 2007
EXTT0=
EXTT1=
EXTT2=
EXTT3=
EXTT4=
EXTT5=
EXTT6=
EXTT7=
EXTT8=
EXTT9=
EXTT10=
EXTT11=
EXTT12=
EXTT13=
EXTT14=
EXTT15=
EXTT16=
EXTT17=
EXTT18=
EXTT19=
PLAYORDER=
